<svg viewBox="0 0 24 24" xmlns="http://www.w3.org/2000/svg">
  <path
    d="M1.02 24.001H0V-.002h24v24.003c-.324 0-.651 0-.996-.016-.243-1.064-.453-2.115-.7-3.157a13.634 13.634 0 0 0-.519-1.702 2.091 2.091 0 0 0-1.175-1.201c-.355-.15-.708-.306-1.068-.443-.702-.265-1.398-.554-2.116-.769-.807-.242-1.527-.638-2.232-1.078-.231-.144-.425-.338-.471-.603-.079-.447-.113-.903-.157-1.356-.005-.056.036-.125.073-.176.347-.489.62-1.013.772-1.597.016-.064.092-.165.135-.162.259.018.332-.164.411-.346.251-.575.413-1.171.402-1.803-.005-.267-.079-.346-.315-.425-.048-.016-.096-.105-.1-.163-.005-.066.039-.136.064-.203a5.214 5.214 0 0 0 .263-2.888c-.127-.665-.442-1.209-1.025-1.554a20.684 20.684 0 0 0-1.712-.903c-.9-.423-1.755-.284-2.546.298-.107.078-.199.096-.324.049a1.269 1.269 0 0 0-1.133.089c-.276.16-.531.356-.803.525a1.567 1.567 0 0 0-.706.999c-.103.43-.154.873-.227 1.31-.059.354-.043.701.078 1.043.104.296.198.595.297.892.042.128.051.216-.128.252-.103.02-.208.109-.279.194-.171.206-.163.457-.14.709.055.587.35 1.09.555 1.625.048.124.148.19.282.143.172-.061.209.038.257.169.208.563.427 1.122.639 1.683.025.067.056.138.054.206-.011.346-.004.695-.056 1.035-.06.393-.196.771-.575.98-.531.293-1.057.602-1.611.843-.458.2-.963.29-1.432.468-.763.291-1.511.621-2.27.923-.551.219-.967.599-1.195 1.128-.229.531-.394 1.092-.543 1.652-.196.738-.354 1.487-.516 2.233-.079.363-.129.731-.192 1.097z"
    fill="rgb(156 163 175)"
  />
  <path
    d="M1.038 24.001c.045-.366.095-.734.174-1.097.162-.746.32-1.495.516-2.233.149-.56.314-1.121.543-1.652.228-.529.644-.909 1.195-1.128.759-.302 1.507-.632 2.27-.923.469-.178.974-.268 1.432-.468.554-.241 1.08-.55 1.611-.843.379-.209.515-.587.575-.98.052-.34.045-.689.056-1.035.002-.068-.029-.139-.054-.206-.212-.561-.431-1.12-.639-1.683-.048-.131-.085-.23-.257-.169-.134.047-.234-.019-.282-.143-.205-.535-.5-1.038-.555-1.625-.023-.252-.031-.503.14-.709.071-.085.176-.174.279-.194.179-.036.17-.124.128-.252-.099-.297-.193-.596-.297-.892a2.055 2.055 0 0 1-.078-1.043c.073-.437.124-.88.227-1.31.1-.416.328-.764.706-.999.272-.169.527-.365.803-.525a1.269 1.269 0 0 1 1.133-.089c.125.047.217.029.324-.049.791-.582 1.646-.721 2.546-.298.584.275 1.157.575 1.712.903.583.345.898.889 1.025 1.554.188.99.095 1.95-.263 2.888-.025.067-.069.137-.064.203.004.058.052.147.1.163.236.079.31.158.315.425.011.632-.151 1.228-.402 1.803-.079.182-.152.364-.411.346-.043-.003-.119.098-.135.162-.152.584-.425 1.108-.772 1.597-.037.051-.078.12-.073.176.044.453.078.909.157 1.356.046.265.24.459.471.603.705.44 1.425.836 2.232 1.078.718.215 1.414.504 2.116.769.36.137.713.293 1.068.443.559.237.962.646 1.175 1.201.211.553.382 1.126.519 1.702.247 1.042.457 2.093.682 3.157-7.31.016-14.62.016-21.948.016z"
    fill="rgb(243 244 246)"
  />
</svg>
