<svg xmlns="http://www.w3.org/2000/svg" viewBox="40 44 425 425">
  <g fill="teal">
    <path d="m274 52 145 82c18 9 26 24 26 44-4 126-62 221-171 284-14 7-28 7-42 0A319 319 0 0 1 66 232c-4-19-4-39-5-58-1-17 7-30 22-38l148-84c14-7 28-8 43 0M168 229a50 50 0 0 0 11 80c5 3 10 4 16 5 4 1 7-2 8-7 1-4-2-8-6-9l-5-1c-10-3-17-10-20-20-8-22 6-44 30-45 6 0 9-3 9-9l1-6a42 42 0 0 1 82 0v22c1 7 4 10 11 10h8c15 0 26 16 22 31-3 11-11 17-24 19-5 0-8 3-8 8 0 4 3 8 8 8h8c18-4 32-20 34-37 1-18-9-36-26-43l-16-4c0-15-2-30-12-43a59 59 0 0 0-104 28 52 52 0 0 0-27 13m44 58-1 5v46c0 8 3 11 11 11h62c8 0 11-3 11-11v-43c0-7-2-12-9-14-1-26-12-40-32-41-8 0-16 2-22 8-11 9-13 21-13 32l-7 7z"/>
    <path d="M267 299h10v33h-49v-33h39m-22 19c2 4 5 7 9 5 3-1 6-3 7-6 0-2-1-7-3-8-2-2-6-2-9-1-4 1-5 5-4 10zm11-36h-20c-1-9 0-17 8-23 6-3 12-3 18 0 8 6 8 14 7 23h-13z"/>
  </g>
  <g fill="#fff" stroke="#fff">
    <path d="M169 228c7-7 16-11 26-13a59 59 0 0 1 104-27c11 12 13 28 12 43l16 4c17 7 27 24 26 43-2 17-16 33-33 36l-9 1c-5-1-8-4-8-8 0-5 3-8 8-9 13-1 21-7 24-18 4-16-7-31-22-31l-8-1c-7 0-10-3-10-10l-1-21c-3-20-21-35-42-35-20 0-38 15-40 35a143 143 0 0 0-1 6c0 6-3 8-9 9-24 1-38 23-30 45 3 10 10 16 20 20l5 1c4 1 7 5 6 9-1 5-4 7-8 7-6-1-11-2-16-5a50 50 0 0 1-10-81z"/>
    <path d="M212 286a161 161 0 0 1 8-6c-1-12 1-24 12-32 6-6 14-8 22-8 21 1 31 15 32 41 7 2 9 7 9 14v43c0 7-3 10-11 10h-62c-8 0-11-2-11-10v-46l1-6m54 12h-38v33h50v-33h-12m-10-16h13c1-9 1-18-7-23-6-3-12-3-18 0-8 5-8 14-8 23h20z"/>
    <path d="M245 317c-1-4 0-8 4-9 3-1 7-1 9 1 2 1 3 5 3 8-1 2-4 5-7 6-4 1-7-1-9-6z"/>
  </g>
</svg>
