<svg
  viewBox="0 0 150 30"
  xmlns="http://www.w3.org/2000/svg">
    <path
      d="M 7.233 26.471 Q 5.833 26.471 4.741 25.855 Q 3.649 25.239 3.047 24.147 Q 2.445 23.055 2.445 21.655 L 2.445 20.955 L 5.301 20.647 L 5.301 21.375 Q 5.301 22.439 5.805 23.055 Q 6.309 23.671 7.205 23.671 Q 8.073 23.671 8.591 23.167 Q 9.109 22.663 9.109 21.795 Q 9.109 20.843 8.563 19.975 Q 8.017 19.107 6.393 17.567 Q 4.209 15.495 3.411 14.123 Q 2.613 12.751 2.613 11.127 Q 2.613 8.915 3.817 7.613 Q 5.021 6.311 7.121 6.311 Q 9.221 6.311 10.425 7.627 Q 11.629 8.943 11.629 11.155 L 11.629 11.659 L 8.773 11.967 L 8.773 11.407 Q 8.773 10.287 8.353 9.699 Q 7.933 9.111 7.149 9.111 Q 6.365 9.111 5.945 9.587 Q 5.525 10.063 5.525 10.987 Q 5.525 11.911 6.085 12.765 Q 6.645 13.619 8.241 15.215 Q 10.425 17.399 11.223 18.729 Q 12.021 20.059 12.021 21.655 Q 12.021 23.055 11.419 24.147 Q 10.817 25.239 9.725 25.855 Q 8.633 26.471 7.233 26.471 Z M 16.539 6.591 L 24.967 6.591 L 24.967 9.391 L 19.507 9.391 L 19.507 14.851 L 23.847 14.851 L 23.847 17.651 L 19.507 17.651 L 19.507 23.391 L 24.967 23.391 L 24.967 26.191 L 16.539 26.191 Z M 33.855 26.471 Q 31.783 26.471 30.495 25.183 Q 29.207 23.895 29.207 21.823 L 29.207 10.959 Q 29.207 8.887 30.495 7.599 Q 31.783 6.311 33.855 6.311 Q 35.927 6.311 37.215 7.599 Q 38.503 8.887 38.503 10.959 L 38.503 13.255 L 35.591 13.255 L 35.591 10.959 Q 35.591 10.119 35.115 9.615 Q 34.639 9.111 33.883 9.111 Q 33.127 9.111 32.651 9.615 Q 32.175 10.119 32.175 10.959 L 32.175 21.823 Q 32.175 22.663 32.651 23.167 Q 33.127 23.671 33.883 23.671 Q 34.639 23.671 35.115 23.167 Q 35.591 22.663 35.591 21.823 L 35.591 19.023 L 38.503 19.023 L 38.503 21.823 Q 38.503 23.895 37.215 25.183 Q 35.927 26.471 33.855 26.471 Z M 47.727 26.471 Q 45.683 26.471 44.395 25.197 Q 43.107 23.923 43.107 21.879 L 43.107 6.591 L 46.075 6.591 L 46.075 21.879 Q 46.075 22.719 46.537 23.195 Q 46.999 23.671 47.727 23.671 Q 48.455 23.671 48.917 23.195 Q 49.379 22.719 49.379 21.879 L 49.379 6.591 L 52.291 6.591 L 52.291 21.879 Q 52.291 23.923 51.031 25.197 Q 49.771 26.471 47.727 26.471 Z M 64.09 26.191 L 61.934 18.099 L 60.394 18.099 L 60.394 26.191 L 57.426 26.191 L 57.426 6.591 L 62.074 6.591 Q 64.202 6.591 65.462 7.865 Q 66.722 9.139 66.722 11.267 L 66.722 13.423 Q 66.722 14.767 66.19 15.803 Q 65.658 16.839 64.678 17.427 L 67.17 26.191 Z M 60.394 15.299 L 61.934 15.299 Q 62.802 15.299 63.278 14.823 Q 63.754 14.347 63.754 13.479 L 63.754 11.211 Q 63.754 10.343 63.278 9.867 Q 62.802 9.391 61.934 9.391 L 60.394 9.391 Z M 71.604 6.591 L 80.032 6.591 L 80.032 9.391 L 74.572 9.391 L 74.572 14.851 L 78.912 14.851 L 78.912 17.651 L 74.572 17.651 L 74.572 23.391 L 80.032 23.391 L 80.032 26.191 L 71.604 26.191 Z M 84.524 6.591 L 89.172 6.591 Q 91.3 6.591 92.56 7.865 Q 93.82 9.139 93.82 11.267 L 93.82 13.563 Q 93.82 15.691 92.56 16.965 Q 91.3 18.239 89.172 18.239 L 87.492 18.239 L 87.492 26.191 L 84.524 26.191 Z M 89.032 15.439 Q 89.9 15.439 90.376 14.963 Q 90.852 14.487 90.852 13.619 L 90.852 11.211 Q 90.852 10.343 90.376 9.867 Q 89.9 9.391 89.032 9.391 L 87.492 9.391 L 87.492 15.439 Z M 103.1 21.851 L 99.908 21.851 L 99.264 26.191 L 96.296 26.191 L 99.544 6.591 L 103.52 6.591 L 106.768 26.191 L 103.744 26.191 Z M 102.708 18.995 L 101.504 10.791 L 100.3 18.995 Z M 115.179 26.471 Q 113.779 26.471 112.687 25.855 Q 111.595 25.239 110.993 24.147 Q 110.391 23.055 110.391 21.655 L 110.391 20.955 L 113.247 20.647 L 113.247 21.375 Q 113.247 22.439 113.751 23.055 Q 114.255 23.671 115.151 23.671 Q 116.019 23.671 116.537 23.167 Q 117.055 22.663 117.055 21.795 Q 117.055 20.843 116.509 19.975 Q 115.963 19.107 114.339 17.567 Q 112.155 15.495 111.357 14.123 Q 110.559 12.751 110.559 11.127 Q 110.559 8.915 111.763 7.613 Q 112.967 6.311 115.067 6.311 Q 117.167 6.311 118.371 7.627 Q 119.575 8.943 119.575 11.155 L 119.575 11.659 L 116.719 11.967 L 116.719 11.407 Q 116.719 10.287 116.299 9.699 Q 115.879 9.111 115.095 9.111 Q 114.311 9.111 113.891 9.587 Q 113.471 10.063 113.471 10.987 Q 113.471 11.911 114.031 12.765 Q 114.591 13.619 116.187 15.215 Q 118.371 17.399 119.169 18.729 Q 119.967 20.059 119.967 21.655 Q 119.967 23.055 119.365 24.147 Q 118.763 25.239 117.671 25.855 Q 116.579 26.471 115.179 26.471 Z M 123.451 6.591 L 132.915 6.591 L 132.915 9.391 L 129.667 9.391 L 129.667 26.191 L 126.699 26.191 L 126.699 9.391 L 123.451 9.391 Z M 137.209 6.591 L 145.637 6.591 L 145.637 9.391 L 140.177 9.391 L 140.177 14.851 L 144.517 14.851 L 144.517 17.651 L 140.177 17.651 L 140.177 23.391 L 145.637 23.391 L 145.637 26.191 L 137.209 26.191 Z"
      fill="teal" />
</svg>